<svg height="1102" width="720" xmlns="http://www.w3.org/2000/svg">
<rect height="1102" fill="#555" width="720"></rect>
<text fill="#7f7" font-family="Courier New" font-size="12" xml:space="preserve">
<tspan x="10" y="26">7 megabytes installed</tspan>
<tspan x="10" y="42"></tspan>
<tspan x="10" y="58">node_modules</tspan>
<tspan x="10" y="74">└─┬ raptor-templates@1.1.27 </tspan>
<tspan x="10" y="90">  ├── char-props@0.1.5 </tspan>
<tspan x="10" y="106">  ├── events@1.1.1 </tspan>
<tspan x="10" y="122">  ├─┬ htmlparser2@3.9.2 </tspan>
<tspan x="10" y="138">  │ ├── domelementtype@1.3.0 </tspan>
<tspan x="10" y="154">  │ ├── domhandler@2.3.0 </tspan>
<tspan x="10" y="170">  │ ├─┬ domutils@1.5.1 </tspan>
<tspan x="10" y="186">  │ │ └─┬ dom-serializer@0.1.0 </tspan>
<tspan x="10" y="202">  │ │   └── domelementtype@1.1.3 </tspan>
<tspan x="10" y="218">  │ ├── entities@1.1.1 </tspan>
<tspan x="10" y="234">  │ ├── inherits@2.0.3 </tspan>
<tspan x="10" y="250">  │ └─┬ readable-stream@2.2.9 </tspan>
<tspan x="10" y="266">  │   ├── buffer-shims@1.0.0 </tspan>
<tspan x="10" y="282">  │   ├── core-util-is@1.0.2 </tspan>
<tspan x="10" y="298">  │   ├── isarray@1.0.0 </tspan>
<tspan x="10" y="314">  │   ├── process-nextick-args@1.0.7 </tspan>
<tspan x="10" y="330">  │   ├── string_decoder@1.0.0 </tspan>
<tspan x="10" y="346">  │   └── util-deprecate@1.0.2 </tspan>
<tspan x="10" y="362">  ├─┬ minimatch@0.2.14 </tspan>
<tspan x="10" y="378">  │ ├── lru-cache@2.7.3 </tspan>
<tspan x="10" y="394">  │ └── sigmund@1.0.1 </tspan>
<tspan x="10" y="410">  ├── property-handlers@0.2.1-beta </tspan>
<tspan x="10" y="426">  ├── raptor-args@1.0.3 </tspan>
<tspan x="10" y="442">  ├── raptor-json@1.1.0 </tspan>
<tspan x="10" y="458">  ├─┬ raptor-logging@1.1.2 </tspan>
<tspan x="10" y="474">  │ └── raptor-stacktraces@1.0.1 </tspan>
<tspan x="10" y="490">  ├─┬ raptor-modules@1.3.2 </tspan>
<tspan x="10" y="506">  │ ├── app-module-path@1.1.0 </tspan>
<tspan x="10" y="522">  │ ├── app-root-dir@1.0.2 </tspan>
<tspan x="10" y="538">  │ ├── raptor-async@1.1.3 </tspan>
<tspan x="10" y="554">  │ ├── resolve-from@1.0.1 </tspan>
<tspan x="10" y="570">  │ └── through@2.3.8 </tspan>
<tspan x="10" y="586">  ├── raptor-polyfill@1.0.2 </tspan>
<tspan x="10" y="602">  ├─┬ raptor-promises@1.0.3 </tspan>
<tspan x="10" y="618">  │ └── q@1.5.0 </tspan>
<tspan x="10" y="634">  ├── raptor-regexp@1.0.1 </tspan>
<tspan x="10" y="650">  ├─┬ raptor-render-context@1.0.0-beta </tspan>
<tspan x="10" y="666">  │ ├─┬ raptor-logging@0.2.0-beta </tspan>
<tspan x="10" y="682">  │ │ ├── raptor-detect@0.2.0-beta </tspan>
<tspan x="10" y="698">  │ │ ├── raptor-ecma@0.2.0-beta </tspan>
<tspan x="10" y="714">  │ │ └── raptor-stacktraces@0.2.0-beta </tspan>
<tspan x="10" y="730">  │ └── raptor-strings@0.2.0-beta </tspan>
<tspan x="10" y="746">  ├── raptor-strings@1.0.2 </tspan>
<tspan x="10" y="762">  ├─┬ raptor-taglib-async@1.0.0-beta </tspan>
<tspan x="10" y="778">  │ ├── raptor-data-providers@0.2.0-beta </tspan>
<tspan x="10" y="794">  │ ├─┬ raptor-dust@0.3.12 </tspan>
<tspan x="10" y="810">  │ │ ├─┬ raptor-render-context@0.2.0-beta </tspan>
<tspan x="10" y="826">  │ │ │ ├── events-browserify@0.0.1 </tspan>
<tspan x="10" y="842">  │ │ │ ├─┬ raptor-logging@0.2.0-beta </tspan>
<tspan x="10" y="858">  │ │ │ │ └── raptor-stacktraces@0.2.0-beta </tspan>
<tspan x="10" y="874">  │ │ │ ├─┬ raptor-promises@0.2.0-beta </tspan>
<tspan x="10" y="890">  │ │ │ │ ├── q@0.9.7 </tspan>
<tspan x="10" y="906">  │ │ │ │ └── raptor-util@0.2.0-beta </tspan>
<tspan x="10" y="922">  │ │ │ ├── raptor-strings@0.2.0-beta </tspan>
<tspan x="10" y="938">  │ │ │ └── raptor-util@0.2.0-beta </tspan>
<tspan x="10" y="954">  │ │ └── raptor-util@0.2.2-beta </tspan>
<tspan x="10" y="970">  │ └─┬ raptor-logging@0.2.6-beta </tspan>
<tspan x="10" y="986">  │   ├── raptor-polyfill@0.2.0-beta </tspan>
<tspan x="10" y="1002">  │   └── raptor-stacktraces@0.2.0-beta </tspan>
<tspan x="10" y="1018">  ├─┬ raptor-taglib-layout@1.0.0-beta </tspan>
<tspan x="10" y="1034">  │ ├── raptor-polyfill@0.2.0-beta </tspan>
<tspan x="10" y="1050">  │ └── raptor-util@0.2.3-beta </tspan>
<tspan x="10" y="1066">  ├── raptor-util@1.1.2 </tspan>
<tspan x="10" y="1082">  └── sax@0.6.1</tspan>
</text>
</svg>
